<?xml version="1.0" encoding="UTF-8"?>
<!-- Mergetopus logo – V3 Minimal/Professional (960×320) -->
<svg width="960" height="320" viewBox="0 0 960 320" fill="none" xmlns="http://www.w3.org/2000/svg">
  <defs>
    <linearGradient id="bg" x1="0" y1="0" x2="960" y2="320" gradientUnits="userSpaceOnUse">
      <stop offset="0%"   stop-color="#F8FAFC"/>
      <stop offset="100%" stop-color="#EEF2F7"/>
    </linearGradient>
    <linearGradient id="body" x1="88" y1="52" x2="222" y2="172" gradientUnits="userSpaceOnUse">
      <stop offset="0%"   stop-color="#6A4DB8"/>
      <stop offset="100%" stop-color="#4A2E95"/>
    </linearGradient>
    <linearGradient id="tent" x1="0" y1="180" x2="0" y2="290" gradientUnits="userSpaceOnUse">
      <stop offset="0%"   stop-color="#2BB8A6"/>
      <stop offset="100%" stop-color="#1A8878"/>
    </linearGradient>
  </defs>

  <!-- Background -->
  <rect width="960" height="320" rx="24" fill="url(#bg)"/>

  <!-- Subtle grid -->
  <g stroke="#D8E4F0" stroke-width="0.8">
    <line x1="0"   y1="80"  x2="960" y2="80"/>
    <line x1="0"   y1="160" x2="960" y2="160"/>
    <line x1="0"   y1="240" x2="960" y2="240"/>
    <line x1="100" y1="0"   x2="100" y2="320"/>
    <line x1="200" y1="0"   x2="200" y2="320"/>
    <line x1="300" y1="0"   x2="300" y2="320"/>
    <line x1="400" y1="0"   x2="400" y2="320"/>
    <line x1="500" y1="0"   x2="500" y2="320"/>
    <line x1="600" y1="0"   x2="600" y2="320"/>
    <line x1="700" y1="0"   x2="700" y2="320"/>
    <line x1="800" y1="0"   x2="800" y2="320"/>
    <line x1="900" y1="0"   x2="900" y2="320"/>
  </g>

  <!-- 6 bottom tentacles (+ 2 side arms below = 8 arms total) -->
  <g stroke="url(#tent)" stroke-linecap="round" fill="none" stroke-width="11">
    <path d="M97,180 Q72,212 80,253 Q83,272 68,290"/>
    <path d="M120,184 Q106,218 112,252 Q114,270 104,290"/>
    <path d="M143,186 Q143,220 143,256 Q143,272 141,290"/>
    <path d="M167,186 Q167,220 167,256 Q167,272 169,290"/>
    <path d="M190,184 Q204,218 198,252 Q196,270 206,290"/>
    <path d="M213,180 Q238,212 230,253 Q227,272 242,290"/>
  </g>

  <!-- 2 side arms -->
  <path d="M96,142 Q68,126 52,104 Q42,88 54,78" stroke="#2BB8A6" stroke-width="9" stroke-linecap="round" fill="none"/>
  <path d="M214,142 Q242,126 258,104 Q268,88 256,78" stroke="#2BB8A6" stroke-width="9" stroke-linecap="round" fill="none"/>

  <!-- Body (purple gradient) -->
  <path d="M155,52 C190,52 222,76 222,110 C222,143 200,172 155,174 C110,172 88,143 88,110 C88,76 120,52 155,52 Z" fill="url(#body)"/>
  <!-- Highlight -->
  <ellipse cx="140" cy="83" rx="38" ry="20" fill="#9070CC" opacity="0.28"/>

  <!-- Headband (amber) -->
  <path d="M100,77 Q155,60 210,77 L208,93 Q155,77 102,93 Z" fill="#F4A426"/>
  <text x="155" y="90" text-anchor="middle" font-family="'Courier New',Courier,monospace" font-size="15" font-weight="700" fill="#2A1A00">&lt;/&gt;</text>

  <!-- Eyes (white base, dark pupils, shine dot) -->
  <circle cx="132" cy="113" r="16" fill="white" opacity="0.92"/>
  <circle cx="178" cy="113" r="16" fill="white" opacity="0.92"/>
  <circle cx="134" cy="115" r="9.5" fill="#2A1A60"/>
  <circle cx="180" cy="115" r="9.5" fill="#2A1A60"/>
  <circle cx="130" cy="109" r="4"   fill="white"/>
  <circle cx="176" cy="109" r="4"   fill="white"/>

  <!-- Smile -->
  <path d="M142,134 Q155,148 168,134" fill="none" stroke="#2A1A60" stroke-width="3" stroke-linecap="round"/>

  <!-- Merge node (teal) -->
  <circle cx="155" cy="276" r="16" fill="#2BB8A6"/>
  <circle cx="155" cy="276" r="7"  fill="#F8FAFC"/>

  <!-- Circle badge border -->
  <circle cx="155" cy="158" r="128" fill="none" stroke="#D0DCE8" stroke-width="2.5"/>

  <!-- Teal vertical separator -->
  <line x1="308" y1="22" x2="308" y2="298" stroke="#2BB8A6" stroke-width="2"/>

  <!-- Title -->
  <text x="328" y="168" font-family="'Helvetica Neue',Helvetica,Arial,sans-serif"
        font-size="72" font-weight="600" letter-spacing="3" fill="#4A2E95">MERGETOPUS</text>

  <!-- Subtitle -->
  <text x="330" y="212" font-family="'Helvetica Neue',Helvetica,Arial,sans-serif"
        font-size="22" font-weight="400" letter-spacing="4" fill="#8A7AC8">COMPLEX MERGES, SPLIT WITH CONFIDENCE</text>

  <!-- Thin decorative teal underline -->
  <line x1="328" y1="182" x2="928" y2="182" stroke="#2BB8A6" stroke-width="2" opacity="0.45"/>
</svg>
